<?xml version="1.0" encoding="utf-8"?>
<!-- Generator: Moho 14.2 build 20240604 -->
<!DOCTYPE svg PUBLIC "-//W3C//DTD SVG 1.1//EN" "http://www.w3.org/Graphics/SVG/1.1/DTD/svg11.dtd">
<svg version="1.1" id="Frame_1" xmlns="http://www.w3.org/2000/svg" xmlns:xlink="http://www.w3.org/1999/xlink" width="1280px" height="720px">
<path id="S1" fill="#66bb6a" fill-rule="evenodd" stroke="none" d="M 583.406 700.637 C 583.406 700.579 583.406 310.619 583.406 113.315 C 496.292 116.064 362.824 120.032 362.802 120.030 C 362.803 120.020 380.139 24.189 380.141 24.179 C 380.204 24.178 1005.993 15.511 1006.056 15.511 C 1006.054 15.518 982.220 87.514 982.217 87.522 C 982.191 87.528 814.673 50.068 720.434 150.154 C 630.004 249.056 661.922 700.582 661.919 700.637 C 661.911 700.637 583.414 700.637 583.406 700.637 Z"/>
<path id="S2" fill="#ffb74d" fill-rule="evenodd" stroke="none" d="M 658.302 387.664 C 707.126 389.533 806.551 387.702 806.566 387.702 C 806.566 387.695 806.566 322.032 806.566 322.025 C 806.551 322.025 663.539 321.890 663.536 321.893 C 662.889 332.672 659.988 364.932 658.302 387.664 Z"/>
</svg>
