<?xml version="1.0" encoding="utf-8"?>
<!-- Generator: Moho 14.2 build 20240604 -->
<!DOCTYPE svg PUBLIC "-//W3C//DTD SVG 1.1//EN" "http://www.w3.org/Graphics/SVG/1.1/DTD/svg11.dtd">
<svg version="1.1" id="Frame_1" xmlns="http://www.w3.org/2000/svg" xmlns:xlink="http://www.w3.org/1999/xlink" width="1280px" height="720px">
<path id="S1" fill="#66bb6a" fill-rule="evenodd" stroke="none" d="M 619.112 461.052 C 619.112 461.031 619.112 317.105 619.112 244.284 C 586.960 245.299 537.701 246.763 537.692 246.763 C 537.693 246.759 544.091 211.390 544.092 211.386 C 544.115 211.386 775.080 208.187 775.103 208.187 C 775.102 208.190 766.306 234.762 766.305 234.765 C 766.295 234.767 704.468 220.941 669.686 257.881 C 636.311 294.384 648.091 461.032 648.090 461.052 C 648.087 461.052 619.115 461.052 619.112 461.052 Z"/>
<path id="S2" fill="#ffb74d" fill-rule="evenodd" stroke="none" d="M 646.755 345.541 C 664.775 346.231 701.470 345.555 701.476 345.555 C 701.476 345.552 701.476 321.317 701.476 321.315 C 701.471 321.315 648.688 321.265 648.686 321.266 C 648.448 325.245 647.377 337.151 646.755 345.541 Z"/>
</svg>
